<svg xmlns="http://www.w3.org/2000/svg" viewBox="0 0 28 16" width="28" height="16">
  <!-- Flat rectangular Iran flag (4:7). No wave / curve. -->
  <rect width="28" height="16" fill="#fff"/>
  <rect width="28" height="5.33" fill="#239f40"/>
  <rect y="10.67" width="28" height="5.33" fill="#da0000"/>
  <!-- Simplified red emblem (tulip / stylized Allah) for small size -->
  <g fill="#da0000" transform="translate(14 8)">
    <path d="M0-2.4c0.9 0.7 1.5 1.7 1.5 2.9 0 1.4-0.9 2.4-1.5 2.9-0.6-0.5-1.5-1.5-1.5-2.9 0-1.2 0.6-2.2 1.5-2.9z"/>
    <path d="M-1.1-0.2h2.2v2.6h-2.2z"/>
    <path d="M-1.8 0.3h0.5v2.1h-0.5zM1.3 0.3h0.5v2.1h-0.5z"/>
  </g>
  <!-- Simplified takbir script strips (geometric bars matching official look at tiny size) -->
  <g fill="#da0000">
    <rect x="0.6" y="5.55" width="0.55" height="0.9"/>
    <rect x="1.5" y="5.55" width="0.55" height="0.9"/>
    <rect x="2.4" y="5.55" width="0.55" height="0.9"/>
    <rect x="3.3" y="5.55" width="0.55" height="0.9"/>
    <rect x="4.2" y="5.55" width="0.55" height="0.9"/>
    <rect x="5.1" y="5.55" width="0.55" height="0.9"/>
    <rect x="6.0" y="5.55" width="0.55" height="0.9"/>
    <rect x="6.9" y="5.55" width="0.55" height="0.9"/>
    <rect x="7.8" y="5.55" width="0.55" height="0.9"/>
    <rect x="8.7" y="5.55" width="0.55" height="0.9"/>
    <rect x="9.6" y="5.55" width="0.55" height="0.9"/>
    <rect x="19.0" y="5.55" width="0.55" height="0.9"/>
    <rect x="19.9" y="5.55" width="0.55" height="0.9"/>
    <rect x="20.8" y="5.55" width="0.55" height="0.9"/>
    <rect x="21.7" y="5.55" width="0.55" height="0.9"/>
    <rect x="22.6" y="5.55" width="0.55" height="0.9"/>
    <rect x="23.5" y="5.55" width="0.55" height="0.9"/>
    <rect x="24.4" y="5.55" width="0.55" height="0.9"/>
    <rect x="25.3" y="5.55" width="0.55" height="0.9"/>
    <rect x="26.2" y="5.55" width="0.55" height="0.9"/>
    <rect x="0.6" y="9.55" width="0.55" height="0.9"/>
    <rect x="1.5" y="9.55" width="0.55" height="0.9"/>
    <rect x="2.4" y="9.55" width="0.55" height="0.9"/>
    <rect x="3.3" y="9.55" width="0.55" height="0.9"/>
    <rect x="4.2" y="9.55" width="0.55" height="0.9"/>
    <rect x="5.1" y="9.55" width="0.55" height="0.9"/>
    <rect x="6.0" y="9.55" width="0.55" height="0.9"/>
    <rect x="6.9" y="9.55" width="0.55" height="0.9"/>
    <rect x="7.8" y="9.55" width="0.55" height="0.9"/>
    <rect x="8.7" y="9.55" width="0.55" height="0.9"/>
    <rect x="9.6" y="9.55" width="0.55" height="0.9"/>
    <rect x="19.0" y="9.55" width="0.55" height="0.9"/>
    <rect x="19.9" y="9.55" width="0.55" height="0.9"/>
    <rect x="20.8" y="9.55" width="0.55" height="0.9"/>
    <rect x="21.7" y="9.55" width="0.55" height="0.9"/>
    <rect x="22.6" y="9.55" width="0.55" height="0.9"/>
    <rect x="23.5" y="9.55" width="0.55" height="0.9"/>
    <rect x="24.4" y="9.55" width="0.55" height="0.9"/>
    <rect x="25.3" y="9.55" width="0.55" height="0.9"/>
    <rect x="26.2" y="9.55" width="0.55" height="0.9"/>
  </g>
</svg>
